<svg width="254" height="170" viewBox="0 0 254 170" fill="none" xmlns="http://www.w3.org/2000/svg">
<g clip-path="url(#clip0_1_2)">
<path d="M33.3585 67.4221L56.9952 78.229C56.4396 77.8635 45.2003 70.4359 41.7291 64.5644C38.1697 58.5443 38.4247 54.0909 41.4382 49.7808C44.4518 45.4707 51.8974 42.7625 63.2282 43.4754C74.559 44.1882 87.0251 47.5632 96.3719 55.8148C96.3719 55.8148 88.3957 41.9076 68.095 38.0249C47.7944 34.1423 32.1775 41.9792 23.1717 50.0298C20.7835 52.164 19.5578 54.201 19.1536 56.1429C19.3366 62.0636 33.3585 67.4221 33.3585 67.4221Z" fill="#2899D5"/>
<path d="M41.4393 121.219C38.4247 116.909 38.1708 112.456 41.7302 106.436C45.2896 100.416 57.0192 92.7561 57.0192 92.7561L33.3585 103.573C33.3585 103.573 19.3312 108.933 19.1536 114.856C19.5578 116.798 20.7835 118.835 23.1717 120.97C32.1786 129.021 47.7944 136.859 68.095 132.975C88.3957 129.092 96.3719 115.185 96.3719 115.185C87.0251 123.437 74.559 126.812 63.2282 127.525C51.8985 128.237 44.454 125.529 41.4393 121.219Z" fill="#FBAD18"/>
<path d="M33.3585 103.573L57.0192 92.755C57.0192 92.755 63.7381 89.2282 63.7381 85.7367C63.7381 85.6566 63.7349 85.5775 63.7305 85.4984C63.7349 85.4193 63.7381 85.3402 63.7381 85.2601C63.7381 81.7686 57.0192 78.2418 57.0192 78.2418C57.0192 78.2418 57.0105 78.2354 56.9963 78.2268L33.3585 67.4221C33.3585 67.4221 19.3366 62.0635 19.1536 56.1429C18.0336 61.526 23.2327 66.1781 27.5297 70.158C33.2713 75.4749 35.824 80.7576 35.7772 85.5005C35.824 90.2435 33.2713 95.5262 27.5297 100.843C23.2338 104.822 18.0347 109.474 19.1536 114.856C19.3312 108.934 33.3585 103.573 33.3585 103.573Z" fill="#EE212E"/>
<path d="M77.0235 87.8432C77.0235 88.3968 77.3057 88.8114 77.8701 89.0882C78.4333 89.365 79.148 89.5082 80.0131 89.5168C80.8771 89.5264 81.7236 89.49 82.5516 89.4099C83.3797 89.3297 84.1619 89.2357 84.8984 89.1288C85.6349 89.022 86.0587 88.9685 86.1677 88.9685C86.2407 90.5214 85.9269 91.6189 85.2264 92.2612C84.5258 92.9035 83.1204 93.2252 81.0089 93.2252C78.0978 93.2252 75.9591 92.6449 74.595 91.4853C73.2299 90.3258 72.5479 88.3177 72.5479 85.461C72.5479 84.0332 72.7342 82.8234 73.1068 81.8327C73.4794 80.842 74.0252 80.0885 74.7443 79.5702C75.4634 79.053 76.263 78.6864 77.1466 78.4726C78.0291 78.2589 79.062 78.151 80.2441 78.151C82.5004 78.151 84.1608 78.6191 85.2253 79.5563C86.2897 80.4936 86.8225 81.9887 86.8225 84.0407C86.8225 84.8262 86.6678 85.4556 86.3584 85.928C86.0489 86.4015 85.6436 86.7178 85.1436 86.8781C84.6424 87.0384 84.0421 87.1549 83.3426 87.2265C82.6421 87.2981 81.9502 87.3206 81.2682 87.2938C80.5862 87.2671 79.8486 87.2981 79.0576 87.3879C78.2655 87.4777 77.5868 87.6283 77.0235 87.8432ZM76.8873 85.0314C77.1968 84.8176 77.7012 84.6744 78.4017 84.6028C79.1023 84.5312 79.7571 84.4917 80.3672 84.482C80.9762 84.4735 81.5177 84.3484 81.9916 84.1069C82.4645 83.8665 82.6922 83.4871 82.6737 82.9687C82.6737 82.5049 82.3011 82.1212 81.5547 81.8177C80.5175 81.3892 79.5076 81.3539 78.5248 81.7109C77.1597 82.1939 76.6139 83.3 76.8873 85.0314Z" fill="#142747"/>
<path d="M104.399 83.238V92.9837C103.762 93.0189 103.216 93.0147 102.762 92.9698C102.306 92.9249 101.875 92.8223 101.465 92.662C101.056 92.5017 100.756 92.2377 100.564 91.8722C100.374 91.5067 100.287 91.0472 100.305 90.4936V84.7107V84.6573V83.3182C100.033 82.0154 98.7939 81.4971 96.5931 81.7654C95.447 81.9086 94.7824 82.0154 94.6004 82.087C94.6549 82.3906 94.6822 82.7475 94.6822 83.1579V90.4936C94.6996 91.0472 94.6092 91.5067 94.4098 91.8722C94.2093 92.2377 93.9086 92.5017 93.5088 92.662C93.1078 92.8223 92.6807 92.926 92.2264 92.9698C91.771 93.0147 91.2252 93.0189 90.5889 92.9837V79.9453C90.5889 78.7858 92.4901 78.1606 96.2935 78.0708C101.679 77.9276 104.381 79.6504 104.399 83.238Z" fill="#142747"/>
<path d="M118.674 72.3403C118.947 72.537 119.288 72.662 119.697 72.7155C120.107 72.7689 120.479 72.7956 120.816 72.7956C121.153 72.7956 121.475 72.8448 121.785 72.9431C122.094 73.0414 122.335 73.2776 122.508 73.6527C122.681 74.0279 122.767 74.5718 122.767 75.2857V91.0824C122.749 91.1006 122.663 91.2032 122.508 91.3902C122.353 91.5773 122.212 91.729 122.085 91.8455C121.958 91.962 121.721 92.1127 121.376 92.3008C121.031 92.4878 120.648 92.6353 120.23 92.7422C119.811 92.849 119.247 92.9474 118.538 93.0371C117.829 93.1258 117.027 93.1707 116.135 93.1707C113.333 93.1707 111.322 92.5776 110.103 91.3902C108.884 90.204 108.275 88.2268 108.275 85.4599C108.275 84.3891 108.42 83.4294 108.712 82.5819C109.003 81.7344 109.389 81.0418 109.872 80.5064C110.354 79.971 110.922 79.5253 111.578 79.1673C112.233 78.8104 112.897 78.5603 113.571 78.4181C114.244 78.276 114.945 78.2044 115.672 78.2044C117.074 78.2044 118.075 78.4181 118.675 78.8467V72.3403H118.674ZM118.674 85.7282V81.9267C118.438 81.8551 118.178 81.7932 117.896 81.7397C117.614 81.6863 117.264 81.6457 116.845 81.619C116.426 81.5922 116.03 81.5965 115.657 81.6328C115.285 81.6692 114.897 81.7761 114.497 81.9545C114.097 82.133 113.751 82.3692 113.46 82.6642C113.169 82.9591 112.931 83.3695 112.75 83.8953C112.568 84.4222 112.478 85.0421 112.478 85.756C112.478 86.4346 112.587 87.0235 112.806 87.5225C113.024 88.0227 113.293 88.4064 113.611 88.6736C113.929 88.9418 114.32 89.1417 114.785 89.2763C115.249 89.411 115.667 89.4901 116.04 89.5168C116.412 89.5435 116.818 89.5349 117.254 89.4901C117.691 89.4462 117.995 89.4056 118.168 89.3693C118.342 89.334 118.501 89.2977 118.646 89.2624H118.673C118.691 89.2614 118.691 88.0836 118.674 85.7282Z" fill="#142747"/>
<path d="M126.644 85.5668C126.625 85.4599 126.612 85.3167 126.602 85.1382C126.593 84.9598 126.621 84.6124 126.684 84.0941C126.747 83.5768 126.852 83.081 126.998 82.6086C127.143 82.1362 127.398 81.6136 127.762 81.0418C128.125 80.4711 128.575 79.9806 129.113 79.5692C129.649 79.1588 130.372 78.8157 131.283 78.5378C132.193 78.261 133.23 78.1232 134.394 78.1232C135.214 78.1232 135.968 78.1862 136.659 78.3102C137.351 78.4352 137.946 78.6052 138.447 78.8189C138.947 79.0327 139.393 79.3009 139.785 79.6226C140.176 79.9443 140.499 80.2606 140.754 80.5727C141.009 80.8847 141.222 81.2556 141.396 81.6841C141.568 82.1127 141.7 82.4835 141.791 82.7956C141.881 83.1077 141.946 83.4742 141.982 83.8932C142.018 84.3132 142.041 84.6295 142.05 84.8433C142.059 85.057 142.059 85.3295 142.05 85.6598C142.041 85.99 142.036 86.1728 142.036 86.2091C142.036 86.4944 142.026 86.7541 142.009 86.9861C141.99 87.218 141.936 87.5845 141.846 88.0836C141.754 88.5838 141.628 89.0294 141.463 89.4227C141.3 89.816 141.04 90.2435 140.685 90.7073C140.33 91.1722 139.912 91.5602 139.43 91.8722C138.947 92.1843 138.32 92.4483 137.546 92.662C136.773 92.8758 135.903 92.9837 134.94 92.9837C133.939 92.9837 133.048 92.9217 132.266 92.7967C131.483 92.6716 130.819 92.507 130.273 92.3019C129.727 92.0967 129.25 91.8156 128.84 91.4586C128.431 91.1017 128.098 90.7362 127.844 90.3611C127.589 89.9859 127.38 89.5221 127.217 88.9685C127.053 88.416 126.93 87.8838 126.849 87.3751C126.767 86.8664 126.698 86.2636 126.644 85.5668ZM130.71 85.8083C130.764 86.4335 130.842 86.9283 130.942 87.2938C131.042 87.6593 131.224 88.0216 131.488 88.3786C131.751 88.7355 132.147 88.9942 132.675 89.1555C133.203 89.3159 133.876 89.396 134.695 89.396C135.331 89.396 135.877 89.2977 136.333 89.101C136.787 88.9044 137.124 88.6821 137.343 88.432C137.561 88.1819 137.734 87.8795 137.861 87.5215C137.989 87.1645 138.062 86.8973 138.079 86.7178C138.097 86.5393 138.106 86.3427 138.106 86.1289C138.106 86.1118 138.106 86.0178 138.106 85.8479C138.106 85.6779 138.106 85.5358 138.106 85.4193C138.106 85.3039 138.097 85.1297 138.079 84.8967C138.061 84.6648 138.029 84.4639 137.983 84.294C137.937 84.124 137.874 83.9242 137.793 83.6912C137.711 83.4593 137.611 83.2584 137.493 83.0884C137.374 82.9185 137.219 82.7454 137.029 82.5658C136.838 82.3874 136.624 82.2399 136.387 82.1245C136.151 82.009 135.864 81.915 135.528 81.8434C135.191 81.7718 134.823 81.7365 134.422 81.7365C133.694 81.7365 133.075 81.8348 132.565 82.0315C132.055 82.2281 131.683 82.4558 131.446 82.7144C131.21 82.973 131.028 83.3129 130.9 83.7318C130.773 84.1518 130.704 84.4778 130.696 84.7086C130.686 84.9405 130.691 85.2355 130.71 85.5924C130.71 85.7015 130.71 85.772 130.71 85.8083Z" fill="#142747"/>
<path d="M155.931 78.1242C155.912 78.1606 155.916 78.3476 155.945 78.6864C155.972 79.0252 155.968 79.3511 155.931 79.6632C155.894 79.9753 155.822 80.3108 155.713 80.6667C155.604 81.0237 155.38 81.309 155.044 81.5238C154.707 81.7376 154.275 81.8455 153.747 81.8455C152.984 81.8455 152.392 81.8722 151.974 81.9257C151.555 81.9791 151.181 82.1127 150.855 82.3275C150.527 82.5412 150.309 82.8458 150.2 83.2381C150.091 83.6313 150.036 84.1668 150.036 84.8443V93.4122C149.708 93.1803 149.276 92.9976 148.74 92.8629C148.203 92.7293 147.748 92.6267 147.375 92.5551C147.001 92.4835 146.67 92.2741 146.379 91.9257C146.088 91.5773 145.942 91.0739 145.942 90.4134V83.2381C145.942 83.1312 145.946 82.9837 145.956 82.7967C145.965 82.6096 145.998 82.351 146.052 82.0197C146.107 81.6895 146.197 81.3592 146.324 81.029C146.452 80.6988 146.643 80.3557 146.898 79.9977C147.152 79.6407 147.461 79.3287 147.826 79.0604C148.19 78.7922 148.658 78.5699 149.231 78.3914C149.804 78.2129 150.446 78.1242 151.155 78.1242C152.374 78.1242 153.274 78.1242 153.857 78.1242C154.439 78.1242 154.758 78.1242 154.813 78.1242C154.867 78.1242 154.972 78.1242 155.127 78.1242C155.279 78.1242 155.548 78.1242 155.931 78.1242Z" fill="#142747"/>
<path d="M163.354 98.9001C163.027 98.6682 162.594 98.5293 162.058 98.4854C161.521 98.4406 161.066 98.4181 160.693 98.4181C160.319 98.4181 159.988 98.2257 159.697 97.8421C159.406 97.4584 159.26 96.8289 159.26 95.9547V80.1591C159.278 80.142 159.365 80.0383 159.519 79.8513C159.674 79.6643 159.815 79.5168 159.942 79.4099C160.07 79.303 160.306 79.1513 160.651 78.9546C160.997 78.758 161.379 78.6062 161.798 78.4994C162.216 78.3925 162.78 78.2942 163.49 78.2044C164.199 78.1157 165 78.0708 165.892 78.0708C168.694 78.0708 170.704 78.6639 171.924 79.8513C173.144 81.0386 173.754 83.0147 173.754 85.7816C173.754 87.1207 173.536 88.2803 173.099 89.2624C172.662 90.2446 172.076 90.9991 171.338 91.5249C170.602 92.0518 169.818 92.4354 168.992 92.6759C168.163 92.9164 167.285 93.0371 166.358 93.0371C165.103 93.0371 164.102 92.9121 163.356 92.662V98.9001H163.354ZM163.354 85.5134V89.3148C163.645 89.4046 163.959 89.4751 164.296 89.5285C164.632 89.582 165.055 89.6268 165.565 89.6621C166.074 89.6984 166.548 89.645 166.985 89.5018C167.422 89.3597 167.84 89.1534 168.24 88.8862C168.64 88.619 168.959 88.1905 169.195 87.6016C169.432 87.0128 169.55 86.3074 169.55 85.4866C169.55 84.808 169.437 84.2191 169.209 83.72C168.982 83.221 168.718 82.8362 168.417 82.569C168.117 82.3019 167.721 82.1009 167.23 81.9663C166.738 81.8327 166.329 81.7525 166.002 81.7258C165.674 81.6991 165.265 81.7119 164.774 81.7664C164.283 81.8199 163.982 81.8562 163.873 81.8733C163.764 81.8915 163.601 81.9267 163.382 81.9802H163.354C163.336 81.9791 163.336 83.1579 163.354 85.5134Z" fill="#142747"/>
<path d="M181.695 78.633C182.586 78.276 184.079 78.0975 186.172 78.0975C187.191 78.0975 188.064 78.2675 188.792 78.6062C189.52 78.945 190.047 79.334 190.375 79.7711C190.703 80.2082 190.953 80.7084 191.126 81.2705C191.298 81.8327 191.394 82.2527 191.412 82.5284C191.43 82.8052 191.43 83.0414 191.412 83.2381V92.9837C188.683 93.3407 187.318 92.5113 187.318 90.4936C187.318 89.7444 187.318 88.7623 187.318 87.5482C187.335 84.8892 187.209 83.2691 186.936 82.6887C186.663 82.1084 185.807 81.8006 184.37 81.7654C183.478 81.7654 182.586 81.9257 181.695 82.2474V90.4936C181.731 91.5644 181.39 92.2655 180.672 92.5958C179.953 92.926 178.93 93.0553 177.602 92.9837V72.0999C177.93 72.3318 178.361 72.4707 178.898 72.5145C179.434 72.5594 179.89 72.5819 180.264 72.5819C180.636 72.5819 180.968 72.7742 181.259 73.1579C181.55 73.5416 181.696 74.1711 181.696 75.0453V78.633H181.695Z" fill="#142747"/>
<path d="M195.97 76.5981C195.551 76.1696 195.342 75.6609 195.342 75.072C195.342 74.4831 195.556 73.9787 195.984 73.5598C196.411 73.1408 196.925 72.9303 197.526 72.9303C198.126 72.9303 198.64 73.1408 199.068 73.5598C199.495 73.9798 199.71 74.4831 199.71 75.072C199.71 75.6609 199.496 76.1653 199.068 76.5842C198.64 77.0042 198.127 77.2137 197.526 77.2137C196.925 77.2137 196.407 77.0085 195.97 76.5981ZM199.545 80.8014C199.545 79.9272 199.399 79.2977 199.109 78.914C198.818 78.5304 198.485 78.338 198.113 78.338C197.74 78.338 197.285 78.3155 196.748 78.2707C196.211 78.2268 195.779 78.0879 195.451 77.856V92.9826C196.779 93.0542 197.802 92.9249 198.521 92.5947C199.24 92.2644 199.581 91.5634 199.544 90.4925V80.8014H199.545Z" fill="#142747"/>
<path d="M217.396 83.238V92.9837C216.758 93.0189 216.213 93.0147 215.758 92.9698C215.303 92.9249 214.871 92.8223 214.462 92.662C214.052 92.5017 213.753 92.2377 213.561 91.8722C213.37 91.5067 213.283 91.0472 213.302 90.4936V84.7107V84.6573V83.3182C213.029 82.0154 211.79 81.4971 209.59 81.7654C208.443 81.9086 207.779 82.0154 207.597 82.087C207.651 82.3906 207.679 82.7475 207.679 83.1579V90.4936C207.696 91.0472 207.606 91.5067 207.406 91.8722C207.206 92.2377 206.905 92.5017 206.505 92.662C206.104 92.8223 205.677 92.926 205.223 92.9698C204.767 93.0147 204.222 93.0189 203.585 92.9837V79.9453C203.585 78.7858 205.487 78.1606 209.29 78.0708C214.675 77.9276 217.377 79.6504 217.396 83.238Z" fill="#142747"/>
<path d="M222.363 81.8722C222.363 81.8188 222.353 81.7472 222.336 81.6585C222.317 81.5698 222.313 81.3956 222.321 81.1359C222.33 80.8773 222.357 80.6314 222.403 80.3995C222.449 80.1676 222.539 79.9047 222.677 79.6098C222.813 79.3148 222.995 79.0658 223.223 78.8606C223.45 78.6554 223.759 78.4812 224.151 78.338C224.542 78.1958 225.002 78.1242 225.529 78.1242C225.692 78.1242 225.947 78.1242 226.293 78.1242C226.766 78.1071 227.253 78.1071 227.753 78.1242C228.253 78.1424 228.753 78.1648 229.254 78.1916C229.754 78.2183 230.241 78.2942 230.714 78.4192C231.187 78.5442 231.637 78.696 232.065 78.8745C232.492 79.053 232.884 79.3073 233.238 79.6375C233.593 79.9678 233.903 80.3472 234.167 80.7757C234.43 81.2043 234.635 81.7312 234.781 82.3553C234.926 82.9805 234.999 83.6848 234.999 84.4703V84.6573V84.8443V85.0581V85.2451V85.4588V85.6726V85.9131V86.1802V86.4485V86.7702V87.1987V87.4125C234.999 88.1445 234.917 88.8093 234.754 89.4067C234.59 90.0052 234.386 90.4914 234.139 90.8655C233.894 91.2406 233.589 91.5708 233.225 91.8562C232.861 92.1415 232.52 92.351 232.202 92.4857C231.884 92.6193 231.515 92.7261 231.096 92.8074C230.678 92.8875 230.354 92.9367 230.128 92.9548C229.9 92.973 229.632 92.9816 229.323 92.9816H225.556C225.502 92.9816 225.42 92.9773 225.311 92.9677C225.202 92.9591 224.997 92.9324 224.697 92.8875C224.396 92.8426 224.109 92.7764 223.837 92.6866C223.565 92.5979 223.26 92.4504 222.923 92.2452C222.586 92.04 222.3 91.7996 222.063 91.5228C221.827 91.246 221.626 90.8847 221.463 90.438C221.3 89.9923 221.218 89.4922 221.218 88.9386C221.218 87.9575 221.345 87.1314 221.6 86.4624C221.855 85.7934 222.242 85.275 222.761 84.9095C223.279 84.544 223.857 84.2897 224.494 84.1465C225.13 84.0043 225.904 83.9327 226.814 83.9327C228.397 83.9327 229.475 83.8301 230.048 83.6249C230.621 83.4197 230.908 83.1023 230.908 82.6748C230.908 82.0678 230.312 81.6574 229.12 81.4437C227.928 81.2299 226.663 81.185 225.326 81.3101C223.987 81.4351 223 81.6222 222.363 81.8722ZM231.016 85.9152C230.943 86.005 230.838 86.1118 230.702 86.2369C230.566 86.3619 230.261 86.5276 229.788 86.7317C229.315 86.9369 228.824 87.0395 228.314 87.0395C227.423 87.0395 226.699 87.1464 226.143 87.3612C225.588 87.5749 225.311 87.8795 225.311 88.2717C225.311 88.7355 225.512 89.0839 225.911 89.3158C226.311 89.5478 227.112 89.6643 228.314 89.6643C228.805 89.6643 229.182 89.66 229.447 89.6504C229.71 89.6418 229.956 89.5745 230.183 89.4494C230.411 89.3244 230.57 89.209 230.661 89.101C230.751 88.9942 230.828 88.7665 230.893 88.4181C230.956 88.0697 230.993 87.7352 231.002 87.4146C231.01 87.0929 231.016 86.5938 231.016 85.9152Z" fill="#142747"/>
</g>
<defs>
<clipPath id="clip0_1_2">
<rect width="216" height="97" fill="white" transform="translate(19 37)"/>
</clipPath>
</defs>
</svg>
